<?xml version="1.0" encoding="UTF-8"?>
<svg id="Layer_2" xmlns="http://www.w3.org/2000/svg" version="1.1" viewBox="0 0 700 700">
  <!-- Generator: Adobe Illustrator 29.1.0, SVG Export Plug-In . SVG Version: 2.1.0 Build 142)  -->
  <defs>
    <style>
      .st0 {
        fill: #ef7b22;
      }

      .st1 {
        fill: #fff;
      }

      .st2 {
        fill: none;
        stroke: #fff;
        stroke-miterlimit: 10;
        stroke-width: 7px;
      }
    </style>
  </defs>
  <circle class="st0" cx="351" cy="351.5" r="300"/>
  <g>
    <polygon class="st1" points="125 387.5 125 506.5 215 506.5 215 337.5 125 387.5"/>
    <polygon class="st1" points="575.5 388 575.5 507 485.5 507 485.5 338 575.5 388"/>
    <path class="st1" d="M237.5,507v-203.8l45.5-26.7v-63l67.5-68.2v247.8s-16.5,1.4-30.5,12.4-7,7-9,10c-5.5,8.2-6,10.1-6,20v71.5h-67.5Z"/>
    <path class="st1" d="M463.5,507v-203.8l-45.5-26.7v-63l-67.5-68.2v247.8s16.5,1.4,30.5,12.4c4.2,3.3,7,7,9,10,5.5,8.2,6,10.1,6,20v71.5h67.5Z"/>
  </g>
  <circle class="st2" cx="351" cy="351.5" r="287.5"/>
</svg>