<?xml version="1.0" encoding="UTF-8"?>
<svg id="Layer_2" xmlns="http://www.w3.org/2000/svg" version="1.1" viewBox="0 0 512 512">
  <!-- Generator: Adobe Illustrator 29.1.0, SVG Export Plug-In . SVG Version: 2.1.0 Build 142)  -->
  <defs>
    <style>
      .st0 {
        fill: #f37b21;
        stroke: #f27b21;
        stroke-miterlimit: 10;
      }
    </style>
  </defs>
  <polygon class="st0" points="69 168 69 202 249 202 249 66.4 69 168"/>
  <polygon class="st0" points="429 168 429 202 249 202 249 66.4 429 168"/>
  <polygon class="st0" points="69 392 69 428 249 428 249 359.7 113 359.7 69 392"/>
  <polygon class="st0" points="429 392 429 428 249 428 249 359.7 385 359.7 429 392"/>
  <rect class="st0" x="114" y="223" width="45" height="137"/>
  <rect class="st0" x="187" y="223" width="45" height="137"/>
  <rect class="st0" x="266" y="223" width="45" height="137"/>
  <rect class="st0" x="339" y="223" width="45" height="137"/>
</svg>